<svg version="1.2" xmlns="http://www.w3.org/2000/svg" viewBox="0 0 439 256" width="439" height="256"><defs><clipPath clipPathUnits="userSpaceOnUse" id="cp1"><path d="m183.06 0h256.2v256h-256.2z"/></clipPath></defs><style>.a{fill:#202020}</style><g clip-path="url(#cp1)"><path fill-rule="evenodd" class="a" d="m183.1 23c0-12.7 10.3-23 23-23h210.2c12.7 0 23 10.3 23 23v210c0 12.7-10.3 23-23 23h-210.2c-12.7 0-23-10.3-23-23zm22.4 105.3c0 22.1 12.3 35.2 33 35.2 16.7 0 28.4-8 31.1-20.9h-16.7c-1.9 4.6-6.8 7.1-13.9 7.1-9.4 0-15.3-6.3-15.5-16.4v-1h46.7v-5.5c0-21.5-11.9-34.3-31.9-34.3-20.3 0-32.8 13.7-32.8 35.8zm77.8-14.3c0 10.5 6.5 16.7 19.7 19.6l12.3 2.8c6 1.3 8.6 3.4 8.6 6.7 0 4.4-4.8 7.3-11.8 7.3-7.2 0-11.5-2.7-12.9-7.3h-17.5c1.2 13.1 12.1 20.4 30.1 20.4 17.8 0 30-8.9 30-22.5 0-10.1-6-15.7-19.2-18.6l-12.8-2.8c-6.3-1.4-9.2-3.4-9.2-6.7 0-4.4 4.8-7.3 11.2-7.3 6.7 0 10.8 2.8 11.7 7.1h16.6c-1-13-11.1-20.2-28.4-20.2-17 0-28.4 8.6-28.4 21.5zm69.9 13.8c0 22.9 12 35.7 33.2 35.7 17.8 0 28.9-9.8 30.4-25h-16.8c-1.4 6.7-6.2 10.2-13.6 10.2-9.6 0-15.1-7.3-15.1-20.9 0-13.3 5.5-20.5 15.1-20.5 7.7 0 12.3 4.2 13.6 10.7h16.8c-1.5-15.5-12.3-25.5-30.4-25.5-21.2 0-33.2 12.8-33.2 35.3zm-100.7-6.9h-29c0.6-8.8 6.5-14.6 14.8-14.6 8.4 0 13.9 5.6 14.2 14.6z"/></g><path class="a" d="m0 66.6h19.9v96.7h-19.9z"/><path fill-rule="evenodd" class="a" d="m36.4 143.3c0-12.6 9.1-20.9 23.4-20.9h24.8v-3.1c0-6.8-5.3-11.3-13.2-11.3-6.4 0-11.4 3.3-12.5 8.1h-19.1c2.4-14.9 14-23.2 31.5-23.2 20.5 0 32.8 11 32.8 29.1v41.3h-14.8l-2.2-7.9c-5.9 6-14.2 9.2-24.4 9.2-16.3 0-26.3-8.1-26.3-21.3zm30.8 7.1c10 0 17.2-6.3 17.6-15.6h-18.9c-6 0-9.9 3-9.9 7.7 0 4.8 4.4 7.9 11.2 7.9z"/><path class="a" d="m155.8 163.3h12.5v-17.2h-8.2c-7.8 0-11.5-3.8-11.5-11.8v-23.4h18.8v-16.2h-18.8v-17.8h-15.4l-1.2 8.9c-1.1 7.1-3 8.9-10.5 8.9h-6.1v16.2h13.3v26.4c0 16.7 9.7 26 27.1 26z"/></svg>